<?xml version="1.0" encoding="utf-8"?>
<svg version="1.1" xmlns:xlink="http://www.w3.org/1999/xlink" width="14px" height="14px" xmlns="http://www.w3.org/2000/svg">
  <g transform="matrix(1 0 0 1 -511 -170 )">
    <path d="M 13.061197916666668 3.486328125  C 13.68706597222222 4.5588107638888875  14 5.7300347222222205  14 7  C 14 8.269965277777779  13.68706597222222 9.441189236111109  13.061197916666668 10.513671875  C 12.435329861111112 11.58615451388889  11.58615451388889 12.43532986111111  10.513671875 13.061197916666668  C 9.441189236111112 13.687065972222223  8.269965277777779 14  7 14  C 5.730034722222222 14  4.558810763888889 13.687065972222223  3.486328125 13.061197916666668  C 2.413845486111111 12.43532986111111  1.564670138888889 11.58615451388889  0.9388020833333334 10.513671875  C 0.31293402777777773 9.441189236111109  0 8.269965277777779  0 7  C 0 5.7300347222222205  0.31293402777777773 4.5588107638888875  0.9388020833333334 3.486328125  C 1.564670138888889 2.4138454861111107  2.413845486111111 1.5646701388888875  3.486328125 0.9388020833333328  C 4.558810763888889 0.31293402777777657  5.730034722222222 0  7 0  C 8.269965277777779 0  9.441189236111112 0.31293402777777657  10.513671875 0.9388020833333328  C 11.58615451388889 1.5646701388888875  12.435329861111112 2.4138454861111107  13.061197916666668 3.486328125  Z " fill-rule="nonzero" fill="#0000ff" stroke="none" transform="matrix(1 0 0 1 511 170 )" />
  </g>
</svg>