<?xml version="1.0" encoding="utf-8"?>
<svg version="1.1" xmlns:xlink="http://www.w3.org/1999/xlink" width="8px" height="6px" xmlns="http://www.w3.org/2000/svg">
  <g transform="matrix(1 0 0 1 -571 -290 )">
    <path d="M 7.8515625 0.19791666666666696  C 7.950520833333334 0.32986111111110983  8 0.4861111111111096  8 0.666666666666667  C 8 0.8472222222222217  7.950520833333334 1.0034722222222214  7.8515625 1.135416666666667  L 4.3515625 5.802083333333333  C 4.252604166666667 5.934027777777776  4.135416666666667 6  4 6  C 3.864583333333334 6  3.747395833333334 5.934027777777776  3.6484375 5.802083333333333  L 0.1484375 1.135416666666667  C 0.049479166666666664 1.0034722222222214  0 0.8472222222222217  0 0.666666666666667  C 0 0.4861111111111096  0.049479166666666664 0.32986111111110983  0.1484375 0.19791666666666696  C 0.24739583333333334 0.06597222222222143  0.36458333333333337 0  0.5 0  L 7.5 0  C 7.635416666666667 0  7.752604166666667 0.06597222222222143  7.8515625 0.19791666666666696  Z " fill-rule="nonzero" fill="#000000" stroke="none" transform="matrix(1 0 0 1 571 290 )" />
  </g>
</svg>