<?xml version="1.0" encoding="utf-8"?>
<svg version="1.1" xmlns:xlink="http://www.w3.org/1999/xlink" width="92px" height="70px" xmlns="http://www.w3.org/2000/svg">
  <defs>
    <filter x="225px" y="1020px" width="92px" height="70px" filterUnits="userSpaceOnUse" id="filter41">
      <feOffset dx="5" dy="5" in="SourceAlpha" result="shadowOffsetInner" />
      <feGaussianBlur stdDeviation="2.5" in="shadowOffsetInner" result="shadowGaussian" />
      <feComposite in2="shadowGaussian" operator="atop" in="SourceAlpha" result="shadowComposite" />
      <feColorMatrix type="matrix" values="0 0 0 0 0  0 0 0 0 0  0 0 0 0 0  0 0 0 0.34901960784313724 0  " in="shadowComposite" />
    </filter>
    <g id="widget42">
      <path d="M 35.57470703125 38.41796875000001  C 35.77490234375 39.62890624999999  35.875 40.93750000000001  35.875 42.34375000000001  C 35.875 43.776041666666664  35.45458984375 44.993489583333336  34.61376953125 45.99609375  C 33.77294921875 46.99869791666667  32.76529947916667 47.5  31.5908203125 47  L 14.5341796875 47  C 13.359700520833334 47.5  12.35205078125 46.99869791666667  11.51123046875 45.99609375  C 10.67041015625 44.993489583333336  10.25 43.776041666666664  10.25 42.34375000000001  C 10.25 40.93750000000001  10.35009765625 39.62890624999999  10.55029296875 38.41796875000001  C 10.75048828125 37.20703125  11.077473958333334 36.03515625  11.53125 34.90234375000001  C 11.985026041666668 33.76953124999999  12.665690104166668 32.877604166666664  13.5732421875 32.2265625  C 14.480794270833334 31.575520833333336  15.561848958333334 31.249999999999996  16.81640625 31.249999999999996  C 18.524739583333336 32.91666666666667  20.606770833333336 33.75  23.0625 33.75  C 25.518229166666668 33.75  27.600260416666668 32.91666666666667  29.30859375 31.249999999999996  C 30.563151041666668 31.249999999999996  31.644205729166668 31.575520833333336  32.5517578125 32.2265625  C 33.459309895833336 32.877604166666664  34.139973958333336 33.76953124999999  34.59375 34.90234375000001  C 35.04752604166667 36.03515625  35.37451171875 37.20703125  35.57470703125 38.41796875000001  Z M 28.5078125 19.6875  C 30.002604166666664 21.14583333333333  30.75 22.916666666666664  30.75 24.999999999999996  C 30.75 27.08333333333333  30.002604166666664 28.854166666666668  28.5078125 30.312499999999996  C 27.013020833333336 31.77083333333333  25.197916666666668 32.50000000000001  23.0625 32.50000000000001  C 20.927083333333336 32.50000000000001  19.111979166666668 31.77083333333333  17.6171875 30.312499999999996  C 16.122395833333332 28.854166666666668  15.375 27.08333333333333  15.375 24.999999999999996  C 15.375 22.916666666666664  16.122395833333332 21.14583333333333  17.6171875 19.6875  C 19.111979166666668 18.229166666666657  20.927083333333336 17.499999999999996  23.0625 17.499999999999996  C 25.197916666666668 17.499999999999996  27.013020833333336 18.229166666666657  28.5078125 19.6875  Z M 71.3896484375 40.35156250000001  C 71.6298828125 40.58593750000001  71.75 40.88541666666666  71.75 41.25  L 71.75 43.75000000000001  C 71.75 44.114583333333336  71.6298828125 44.4140625  71.3896484375 44.6484375  C 71.1494140625 44.8828125  70.84244791666667 45  70.46875 45  L 42.28125 45  C 41.907552083333336 45  41.6005859375 44.8828125  41.3603515625 44.6484375  C 41.1201171875 44.4140625  41 44.114583333333336  41 43.75000000000001  L 41 41.25  C 41 40.88541666666666  41.1201171875 40.58593750000001  41.3603515625 40.35156250000001  C 41.6005859375 40.11718750000001  41.907552083333336 40.00000000000001  42.28125 40  L 70.46875 40  C 70.84244791666667 40.00000000000001  71.1494140625 40.11718750000001  71.3896484375 40.35156250000001  Z M 56.0146484375 30.3515625  C 56.2548828125 30.5859375  56.375 30.885416666666664  56.375 31.249999999999996  L 56.375 33.75  C 56.375 34.11458333333333  56.2548828125 34.41406249999999  56.0146484375 34.64843749999999  C 55.7744140625 34.88281249999999  55.46744791666667 34.99999999999999  55.09375 35  L 42.28125 35  C 41.907552083333336 34.99999999999999  41.6005859375 34.88281249999999  41.3603515625 34.64843749999999  C 41.1201171875 34.41406249999999  41 34.11458333333333  41 33.75  L 41 31.249999999999996  C 41 30.885416666666664  41.1201171875 30.5859375  41.3603515625 30.3515625  C 41.6005859375 30.1171875  41.907552083333336 30  42.28125 30  L 55.09375 30  C 55.46744791666667 30  55.7744140625 30.1171875  56.0146484375 30.3515625  Z M 71.3896484375 30.3515625  C 71.6298828125 30.5859375  71.75 30.885416666666664  71.75 31.249999999999996  L 71.75 33.75  C 71.75 34.11458333333333  71.6298828125 34.41406249999999  71.3896484375 34.64843749999999  C 71.1494140625 34.88281249999999  70.84244791666667 34.99999999999999  70.46875 34.99999999999999  L 62.78125 34.99999999999999  C 62.40755208333334 34.99999999999999  62.10058593750001 34.88281249999999  61.8603515625 34.64843749999999  C 61.6201171875 34.41406249999999  61.5 34.11458333333333  61.5 33.75  L 61.5 31.249999999999996  C 61.5 30.885416666666664  61.6201171875 30.5859375  61.8603515625 30.3515625  C 62.10058593750001 30.1171875  62.40755208333334 30  62.78125 30  L 70.46875 30  C 70.84244791666667 30  71.1494140625 30.1171875  71.3896484375 30.3515625  Z M 71.3896484375 20.351562500000004  C 71.6298828125 20.585937500000004  71.75 20.885416666666668  71.75 21.249999999999996  L 71.75 23.750000000000004  C 71.75 24.114583333333332  71.6298828125 24.414062499999996  71.3896484375 24.648437499999996  C 71.1494140625 24.882812499999996  70.84244791666667 24.999999999999996  70.46875 25  L 42.28125 25  C 41.907552083333336 24.999999999999996  41.6005859375 24.882812499999996  41.3603515625 24.648437499999996  C 41.1201171875 24.414062499999996  41 24.114583333333332  41 23.750000000000004  L 41 21.249999999999996  C 41 20.885416666666668  41.1201171875 20.585937500000004  41.3603515625 20.351562500000004  C 41.6005859375 20.117187500000004  41.907552083333336 20.000000000000004  42.28125 20  L 70.46875 20  C 70.84244791666667 20.000000000000004  71.1494140625 20.117187500000004  71.3896484375 20.351562500000004  Z M 76.49462890625 54.62890625  C 76.74820963541667 54.38151041666667  76.87500000000001 54.08854166666667  76 53.75  L 76 10  L 6 10  L 6 53.75  C 5.125 54.08854166666667  5.251790364583334 54.38151041666667  5.50537109375 54.62890625  C 5.758951822916667 54.876302083333336  6.059244791666667 55  6.40625 55  L 75.59375 55  C 75.94075520833334 55  76.24104817708334 54.876302083333336  76.49462890625 54.62890625  Z M 80.1181640625 1.8359375000000022  C 81.37272135416667 3.0598958333333304  82 4.531250000000002  82 6.249999999999998  L 82 53.75  C 82 55.46875  81.37272135416667 56.94010416666667  80.1181640625 58.1640625  C 78.86360677083334 59.388020833333336  77.35546875 60  75.59375 60  L 6.40625 60  C 4.64453125 60  3.136393229166667 59.388020833333336  1.8818359375 58.1640625  C 0.6272786458333333 56.94010416666667  0 55.46875  0 53.75  L 0 6.249999999999998  C 0 4.531250000000002  0.6272786458333333 3.0598958333333304  1.8818359375 1.8359375000000022  C 3.136393229166667 0.6119791666666607  4.64453125 0  6.40625 0  L 75.59375 0  C 77.35546875 0  78.86360677083334 0.6119791666666607  80.1181640625 1.8359375000000022  Z " fill-rule="nonzero" fill="#000000" stroke="none" transform="matrix(1 0 0 1 225 1020 )" />
    </g>
  </defs>
  <g transform="matrix(1 0 0 1 -225 -1020 )">
    <use xlink:href="#widget42" filter="url(#filter41)" />
    <use xlink:href="#widget42" />
  </g>
</svg>