<?xml version="1.0" encoding="utf-8"?>
<svg version="1.1" xmlns:xlink="http://www.w3.org/1999/xlink" width="142px" height="112px" xmlns="http://www.w3.org/2000/svg">
  <g transform="matrix(1 0 0 1 -717 -1586 )">
    <path d="M 717 1586  L 859 1586  L 859 1698  L 717 1698  L 717 1586  " fill-rule="nonzero" fill="#cccccc" stroke="none" />
    <path d="M 725 1594  L 851 1594  L 851 1690  L 725 1690  L 725 1594  " fill-rule="nonzero" fill="#ffffff" stroke="none" />
    <path d="M 799.24 1619.6  C 794.5360000000001 1619.6  790.84 1615.9039999999998  790.84 1611.1999999999998  C 790.84 1606.4959999999999  794.5360000000001 1602.8  799.24 1602.8  C 803.944 1602.8  807.64 1606.4959999999999  807.64 1611.1999999999998  C 807.64 1615.9039999999998  803.944 1619.6  799.24 1619.6  " fill-rule="nonzero" fill="#cccccc" stroke="none" />
    <path d="M 728 1687  L 728 1637.5  L 758 1615  L 800 1644.4084507042253  L 824 1628.5  L 848 1644.4084507042253  L 848 1687  L 728 1687  " fill-rule="nonzero" fill="#169bd5" stroke="none" />
  </g>
</svg>