<?xml version="1.0" encoding="utf-8"?>
<svg version="1.1" xmlns:xlink="http://www.w3.org/1999/xlink" width="8px" height="6px" xmlns="http://www.w3.org/2000/svg">
  <g transform="matrix(1 0 0 1 -571 -282 )">
    <path d="M 7.8515625 4.864583333333333  C 7.950520833333334 4.996527777777776  8 5.152777777777777  8 5.333333333333333  C 8 5.513888888888888  7.950520833333334 5.670138888888888  7.8515625 5.802083333333333  C 7.752604166666667 5.934027777777776  7.635416666666667 6  7.5 6  L 0.5 6  C 0.36458333333333337 6  0.24739583333333334 5.934027777777776  0.1484375 5.802083333333333  C 0.049479166666666664 5.670138888888888  0 5.513888888888888  0 5.333333333333333  C 0 5.152777777777777  0.049479166666666664 4.996527777777776  0.1484375 4.864583333333333  L 3.6484375 0.19791666666666696  C 3.747395833333334 0.06597222222222143  3.864583333333334 0  4 0  C 4.135416666666667 0  4.252604166666667 0.06597222222222143  4.3515625 0.19791666666666696  L 7.8515625 4.864583333333333  Z " fill-rule="nonzero" fill="#000000" stroke="none" transform="matrix(1 0 0 1 571 282 )" />
  </g>
</svg>